<?xml version="1.0" encoding="UTF-8" standalone="no"?>
<svg
   xmlns:dc="http://purl.org/dc/elements/1.1/"
   xmlns:cc="http://creativecommons.org/ns#"
   xmlns:rdf="http://www.w3.org/1999/02/22-rdf-syntax-ns#"
   xmlns:svg="http://www.w3.org/2000/svg"
   xmlns="http://www.w3.org/2000/svg"
   id="svg8"
   version="1.1"
   viewBox="0 0 122.5162 65.694176"
   height="65.694176mm"
   width="122.5162mm">
  <defs
     id="defs2" />
  <metadata
     id="metadata5">
    <rdf:RDF>
      <cc:Work
         rdf:about="">
        <dc:format>image/svg+xml</dc:format>
        <dc:type
           rdf:resource="http://purl.org/dc/dcmitype/StillImage" />
        <dc:title></dc:title>
      </cc:Work>
    </rdf:RDF>
  </metadata>
  <g
     transform="translate(-25.896492,-97.158133)"
     id="layer1">
    <g
       id="text22"
       style="font-style:normal;font-weight:normal;font-size:66.96548462px;line-height:1.25;font-family:sans-serif;letter-spacing:0px;word-spacing:0px;fill:#000000;fill-opacity:1;stroke:none;stroke-width:1.67413723px;stroke-linecap:butt;stroke-linejoin:miter;stroke-opacity:1"
       aria-label="寿司">
      <path
         id="path24"
         style="font-style:normal;font-variant:normal;font-weight:normal;font-stretch:normal;font-family:KaiTi;-inkscape-font-specification:KaiTi;stroke-width:1.67413723px"
         d="m 63.341113,134.51556 q -0.261584,-3.40059 -1.30792,-5.23168 -1.046335,-2.09267 2.354256,-0.78475 3.662175,1.30792 3.139007,2.09267 -0.261584,0.78475 -0.523168,3.40059 4.185343,-0.78475 7.32435,-1.30792 3.139007,-0.52317 5.754846,1.83109 2.615839,2.35425 -2.877423,2.09267 -5.231678,-0.52317 -10.201773,0 0.261584,10.46336 0.523168,14.91028 0.261584,4.18535 -2.615839,7.32435 -2.61584,3.4006 -3.400591,1.04634 -0.784752,-2.35426 -4.970095,-4.97009 -3.923759,-2.35426 -0.784752,-1.56951 3.400591,0.52317 5.754847,0.52317 1.831087,-0.52317 2.092671,-5.75485 0.261584,-5.49326 0,-11.24811 -9.155437,1.30792 -12.032861,1.83109 -2.877423,0.52317 -5.754846,-1.04633 -2.615839,3.66217 -6.539598,7.32435 -3.923759,3.40059 -8.893853,5.23167 -4.970095,1.56951 0,-1.83108 5.231678,-3.66218 9.155437,-7.84752 3.923759,-4.44693 8.893853,-12.81761 -8.632269,1.30792 -11.248108,1.83108 -2.354256,0.26159 -5.231679,-1.5695 -2.615839,-1.83109 0.261584,-1.5695 2.877423,0 7.062766,-0.26159 4.446927,-0.52316 10.463357,-1.30792 1.30792,-2.61584 2.354255,-5.49326 -1.569503,0 -3.139007,0.52317 -1.307919,0.26158 -3.662175,-1.30792 -2.354255,-1.5695 0.784752,-1.5695 3.400591,0 7.062766,-0.52317 1.30792,-2.35426 2.092671,-5.75485 -3.139007,0.26159 -4.970094,0.52317 -1.569504,0 -3.400591,0.26158 -1.831088,0.26159 -4.185343,-1.30792 -2.092671,-1.5695 0.261584,-1.5695 2.354255,0 4.708511,0 2.615839,-0.26158 8.109101,-0.78475 0.523168,-2.61584 0.523168,-4.44693 0.261584,-2.09267 -0.261584,-3.139 -0.523168,-1.307924 0.784752,-1.04634 1.30792,0 3.400591,1.04634 2.354255,1.04633 1.569504,2.09267 -0.784752,1.04633 -2.092672,4.97009 6.278014,-0.78475 9.417021,-1.5695 3.400591,-0.78475 5.754847,1.30792 2.354255,1.83108 -1.30792,2.09267 -3.400591,0 -6.539598,0.26158 -3.139007,0.26159 -8.109102,0.78475 -1.046335,3.4006 -1.831087,5.75485 5.493262,-0.78475 8.370685,-1.30792 2.877424,-0.78475 4.708511,1.04634 2.092672,1.5695 -0.784752,1.83108 -2.615839,0.26159 -6.278014,0.78476 -3.400591,0.26158 -7.062766,0.78475 -1.307919,3.139 -2.615839,5.49326 7.32435,-1.04634 12.556028,-1.83109 5.493263,-0.78475 9.155438,-1.04633 3.662175,-0.52317 5.754846,-0.26159 2.092671,0.26159 3.923759,2.35426 1.831087,2.09267 -5.493263,1.5695 -7.062765,-0.78475 -26.943144,2.09267 -2.354255,4.44693 -5.231678,8.63227 3.400591,0 7.585934,-0.52316 4.446926,-0.52317 8.632269,-1.04634 z M 51.308253,146.81 q -1.831088,-3.92376 -2.354256,-5.49326 -0.261584,-1.5695 3.400591,0.52317 3.662175,1.83109 2.354256,5.23168 -1.30792,3.40059 -3.400591,-0.26159 z" />
      <path
         id="path26"
         style="font-style:normal;font-variant:normal;font-weight:normal;font-stretch:normal;font-family:KaiTi;-inkscape-font-specification:KaiTi;stroke-width:1.67413723px"
         d="m 112.51889,109.4035 q -2.61584,-1.83108 0.26158,-1.83108 2.87743,0 7.06277,-0.52317 4.18534,-0.52317 9.15544,-1.56951 4.97009,-1.04633 7.06276,-2.09267 2.09268,-1.04633 4.70851,0 2.61584,1.04634 4.44693,2.87743 2.09267,1.83108 0.52317,4.44692 -1.5695,2.61584 -1.5695,10.72494 0.26158,8.1091 0.26158,17.00296 0.26158,8.89385 -0.78475,13.07919 -0.78475,4.18535 -3.66218,6.80119 -2.61584,2.61584 -3.66217,-0.52317 -1.04634,-3.13901 -4.18534,-6.01643 -2.87743,-3.13901 0.52316,-1.56951 3.40059,1.56951 4.9701,1.56951 1.5695,-0.26159 2.09267,-7.84752 0.78475,-7.58593 0.52317,-17.78771 0,-10.20177 -0.52317,-14.6487 -0.26158,-4.70851 -4.18534,-4.18534 -3.66218,0.26159 -9.15544,1.30792 -5.49326,1.04634 -8.37069,1.83109 -2.87742,0.52317 -5.49326,-1.04634 z m 14.38712,28.77423 q 3.66217,2.61584 -0.52317,2.87743 -3.92376,0.26158 -15.43345,2.09267 -1.04634,4.44693 -2.09267,1.5695 -1.04634,-3.139 -2.35426,-7.32435 -1.04634,-4.44692 -2.87742,-6.5396 -1.56951,-2.35425 1.30792,-1.5695 3.139,0.52317 9.15543,-0.78475 6.27802,-1.30792 8.37069,-2.35426 2.09267,-1.04633 4.18534,0 2.09267,0.78476 3.66218,2.09268 1.5695,1.04633 -0.26159,2.87742 -1.83108,1.83109 -3.139,7.06276 z m -18.04929,-6.80118 q 0.52316,3.40059 1.83108,9.67861 5.49327,-0.78475 13.60237,-2.35426 0.52317,-3.139 0.26158,-5.75484 0,-2.61584 -0.52317,-3.4006 -0.52316,-0.78475 -4.44692,0 -3.92376,0.52317 -10.72494,1.83109 z m 5.49326,-10.46335 q -3.13901,0 -5.23168,-1.04634 -1.83109,-1.30792 1.5695,-1.83109 3.40059,-0.52317 6.01643,-0.78475 2.87743,-0.52317 6.5396,-1.30792 3.92376,-1.04634 5.49326,0.78475 1.83109,1.56951 -4.70851,2.87743 -6.53959,1.04633 -9.6786,1.30792 z" />
    </g>
  </g>
</svg>
